# xmcd
#
# Track frame offsets: 
#        150
#        17397
#        36242
#        50495
#        66402
#        82097
#        98787
#        112445
#        125072
#        138622
#        153445
#        171085
#        185615
#        204110
#        217417
#        230325
#        245092
#        255592
#        268817
#        280532
#
# Disc length: 4039 seconds
#
# Revision: 2
# Processed by: cddbd v1.5.2PL0 Copyright (c) Steve Scherf et al.
# Submitted via: ExactAudioCopy v0.99pb5
#
DISCID=340fc514
DTITLE=Ray Price - All American Country
DYEAR=2002
DGENRE=Country
TTITLE0=For The Good Times
TTITLE1=Sunday Morning Comin' Down
TTITLE2=When I Loved Her
TTITLE3=Crazy Arms
TTITLE4=By The Time I Get To Phoenix
TTITLE5=I Won't Mention It Again
TTITLE6=Loving Her Was Easier (Than Anything I'll Ever Do Again)
TTITLE7=I'd Rather Be Sorry
TTITLE8=Lonely World
TTITLE9=Sweetheart Of The Year
TTITLE10=Little Green Apples
TTITLE11=Sweet Memories
TTITLE12=Bridge Over Troubled Water
TTITLE13=You Wouldn't Know Love
TTITLE14=April's Fool
TTITLE15=She Wears My Ring
TTITLE16=Yesterday
TTITLE17=Take Me As I Am (Or Let Me Go)
TTITLE18=Heartaches By The Number
TTITLE19=Danny Boy
EXTD=
EXTT0=
EXTT1=
EXTT2=
EXTT3=
EXTT4=
EXTT5=
EXTT6=
EXTT7=
EXTT8=
EXTT9=
EXTT10=
EXTT11=
EXTT12=
EXTT13=
EXTT14=
EXTT15=
EXTT16=
EXTT17=
EXTT18=
EXTT19=
PLAYORDER=
